<svg width="46" height="45" viewBox="0 0 46 45" fill="none" xmlns="http://www.w3.org/2000/svg">
<path d="M24.395 22.5C25.5139 22.5 26.5869 22.9445 27.3781 23.7356C28.1693 24.5268 28.6138 25.5999 28.6138 26.7188L28.6109 28.8239C28.9006 33.9891 24.9223 36.5653 17.5437 36.5653C10.1905 36.5653 6.125 34.0228 6.125 28.897V26.7188C6.125 25.5999 6.56947 24.5268 7.36064 23.7356C8.15181 22.9445 9.22487 22.5 10.3438 22.5H24.395ZM35.645 22.5C36.7639 22.5 37.8369 22.9445 38.6281 23.7356C39.4193 24.5268 39.8638 25.5999 39.8638 26.7188V28.1995C40.1169 32.8331 36.6012 35.1563 30.1761 35.1563C29.3042 35.1563 28.4844 35.1141 27.718 35.0297C28.5291 34.2898 29.1511 33.3664 29.532 32.3367L30.1761 32.3438C35.195 32.3438 37.2003 31.0177 37.0527 28.2769V26.7188C37.0527 26.3458 36.9045 25.9881 36.6408 25.7244C36.3771 25.4607 36.0194 25.3125 35.6464 25.3125H29.8428C29.5607 24.223 28.9581 23.2433 28.1131 22.5H35.6464H35.645ZM24.395 25.3125H10.3438C9.97079 25.3125 9.6131 25.4607 9.34938 25.7244C9.08566 25.9881 8.9375 26.3458 8.9375 26.7188V28.8984C8.9375 32.1202 11.5475 33.7528 17.5437 33.7528C23.5175 33.7528 25.9813 32.1567 25.8013 28.9013V26.7188C25.8013 26.3458 25.6531 25.9881 25.3894 25.7244C25.1256 25.4607 24.768 25.3125 24.395 25.3125ZM17.375 5.625C19.2402 5.625 21.029 6.36594 22.3478 7.68482C23.6667 9.0037 24.4077 10.7925 24.4077 12.6577C24.4077 14.5228 23.6667 16.3116 22.3478 17.6305C21.029 18.9494 19.2402 19.6903 17.375 19.6903C15.5098 19.6903 13.721 18.9494 12.4022 17.6305C11.0833 16.3116 10.3423 14.5228 10.3423 12.6577C10.3423 10.7925 11.0833 9.0037 12.4022 7.68482C13.721 6.36594 15.5098 5.625 17.375 5.625ZM31.4375 8.4375C32.9293 8.4375 34.3601 9.03013 35.415 10.085C36.4699 11.1399 37.0625 12.5707 37.0625 14.0625C37.0625 15.5543 36.4699 16.9851 35.415 18.04C34.3601 19.0949 32.9293 19.6875 31.4375 19.6875C29.9457 19.6875 28.5149 19.0949 27.46 18.04C26.4051 16.9851 25.8125 15.5543 25.8125 14.0625C25.8125 12.5707 26.4051 11.1399 27.46 10.085C28.5149 9.03013 29.9457 8.4375 31.4375 8.4375ZM17.375 8.4375C16.8208 8.4375 16.272 8.54666 15.76 8.75874C15.248 8.97082 14.7828 9.28168 14.3909 9.67356C13.999 10.0654 13.6882 10.5307 13.4761 11.0427C13.264 11.5547 13.1548 12.1035 13.1548 12.6577C13.1548 13.2119 13.264 13.7606 13.4761 14.2726C13.6882 14.7847 13.999 15.2499 14.3909 15.6418C14.7828 16.0336 15.248 16.3445 15.76 16.5566C16.272 16.7687 16.8208 16.8778 17.375 16.8778C18.4943 16.8778 19.5677 16.4332 20.3591 15.6418C21.1505 14.8503 21.5952 13.7769 21.5952 12.6577C21.5952 11.5384 21.1505 10.465 20.3591 9.67356C19.5677 8.88212 18.4943 8.4375 17.375 8.4375ZM31.4375 11.25C30.6916 11.25 29.9762 11.5463 29.4488 12.0738C28.9213 12.6012 28.625 13.3166 28.625 14.0625C28.625 14.8084 28.9213 15.5238 29.4488 16.0512C29.9762 16.5787 30.6916 16.875 31.4375 16.875C32.1834 16.875 32.8988 16.5787 33.4262 16.0512C33.9537 15.5238 34.25 14.8084 34.25 14.0625C34.25 13.3166 33.9537 12.6012 33.4262 12.0738C32.8988 11.5463 32.1834 11.25 31.4375 11.25Z" fill="#0D47A1"/>
</svg>
