<svg width="46" height="45" viewBox="0 0 46 45" fill="none" xmlns="http://www.w3.org/2000/svg">
<path d="M41.1406 27.4966L38.2622 25.0356C38.3984 24.2007 38.4688 23.3481 38.4688 22.4956C38.4688 21.6431 38.3984 20.7905 38.2622 19.9556L41.1406 17.4946C41.3577 17.3088 41.5131 17.0612 41.5861 16.7849C41.6591 16.5086 41.6463 16.2166 41.5493 15.9478L41.5098 15.8335C40.7174 13.6188 39.5308 11.5657 38.0073 9.77344L37.9282 9.68115C37.7434 9.46385 37.4971 9.30764 37.2218 9.23312C36.9464 9.15859 36.6549 9.16925 36.3858 9.26367L32.813 10.5337C31.4946 9.45264 30.0225 8.6001 28.4317 8.00244L27.7417 4.26709C27.6897 3.98603 27.5533 3.72745 27.3508 3.52572C27.1483 3.32399 26.8892 3.18866 26.6079 3.1377L26.4893 3.11572C24.1997 2.70264 21.7915 2.70264 19.502 3.11572L19.3833 3.1377C19.102 3.18866 18.8429 3.32399 18.6404 3.52572C18.4379 3.72745 18.3016 3.98603 18.2495 4.26709L17.5552 8.02002C15.9771 8.6178 14.5074 9.46989 13.2046 10.5425L9.60548 9.26367C9.33638 9.16849 9.0447 9.15746 8.76918 9.23203C8.49366 9.3066 8.24736 9.46325 8.063 9.68115L7.9839 9.77344C6.46227 11.567 5.27588 13.6197 4.48145 15.8335L4.4419 15.9478C4.24415 16.4971 4.40675 17.1123 4.85059 17.4946L7.76417 19.9819C7.62794 20.8081 7.56202 21.6519 7.56202 22.4912C7.56202 23.335 7.62794 24.1787 7.76417 25.0005L4.85059 27.4878C4.63349 27.6737 4.4781 27.9212 4.40509 28.1975C4.33209 28.4738 4.34493 28.7658 4.4419 29.0347L4.48145 29.1489C5.27686 31.3638 6.4546 33.4072 7.9839 35.209L8.063 35.3013C8.24781 35.5186 8.49412 35.6748 8.76947 35.7493C9.04483 35.8238 9.3363 35.8132 9.60548 35.7187L13.2046 34.4399C14.5142 35.5166 15.9775 36.3691 17.5552 36.9624L18.2495 40.7153C18.3016 40.9964 18.4379 41.255 18.6404 41.4567C18.8429 41.6584 19.102 41.7938 19.3833 41.8447L19.502 41.8667C21.8126 42.282 24.1787 42.282 26.4893 41.8667L26.6079 41.8447C26.8892 41.7938 27.1483 41.6584 27.3508 41.4567C27.5533 41.255 27.6897 40.9964 27.7417 40.7153L28.4317 36.98C30.0218 36.3839 31.5023 35.5286 32.813 34.4487L36.3858 35.7187C36.6548 35.8139 36.9465 35.825 37.2221 35.7504C37.4976 35.6758 37.7439 35.5192 37.9282 35.3013L38.0073 35.209C39.5366 33.4028 40.7144 31.3638 41.5098 29.1489L41.5493 29.0347C41.7471 28.4941 41.5845 27.8789 41.1406 27.4966V27.4966ZM35.1421 20.4741C35.252 21.1377 35.3091 21.8188 35.3091 22.5C35.3091 23.1812 35.252 23.8623 35.1421 24.5259L34.8521 26.2881L38.1348 29.0962C37.6371 30.2427 37.009 31.328 36.2627 32.3306L32.1846 30.8848L30.8047 32.0186C29.7544 32.8799 28.5855 33.5566 27.3198 34.0312L25.6455 34.6597L24.8589 38.9224C23.6177 39.063 22.3647 39.063 21.1235 38.9224L20.3369 34.6509L18.6758 34.0137C17.4233 33.5391 16.2588 32.8623 15.2173 32.0054L13.8374 30.8672L9.73292 32.3262C8.98585 31.3198 8.36183 30.2344 7.86085 29.0918L11.1787 26.2573L10.8931 24.4995C10.7876 23.8447 10.7305 23.168 10.7305 22.5C10.7305 21.8276 10.7832 21.1553 10.8931 20.5005L11.1787 18.7427L7.86085 15.9082C8.35743 14.7612 8.98585 13.6802 9.73292 12.6738L13.8374 14.1328L15.2173 12.9946C16.2588 12.1377 17.4233 11.4609 18.6758 10.9863L20.3413 10.3579L21.1279 6.08643C22.3628 5.9458 23.624 5.9458 24.8633 6.08643L25.6499 10.3491L27.3242 10.9775C28.5855 11.4521 29.7588 12.1289 30.8091 12.9902L32.189 14.124L36.2671 12.6782C37.0142 13.6846 37.6382 14.77 38.1392 15.9126L34.8565 18.7207L35.1421 20.4741ZM23 14.3262C18.7285 14.3262 15.2656 17.7891 15.2656 22.0605C15.2656 26.332 18.7285 29.7949 23 29.7949C27.2715 29.7949 30.7344 26.332 30.7344 22.0605C30.7344 17.7891 27.2715 14.3262 23 14.3262ZM26.4805 25.541C26.024 25.9988 25.4815 26.3619 24.8842 26.6092C24.2868 26.8566 23.6465 26.9834 23 26.9824C21.686 26.9824 20.4512 26.4683 19.5195 25.541C19.0617 25.0845 18.6987 24.542 18.4513 23.9447C18.204 23.3474 18.0771 22.7071 18.0781 22.0605C18.0781 20.7466 18.5923 19.5117 19.5195 18.5801C20.4512 17.6484 21.686 17.1387 23 17.1387C24.314 17.1387 25.5488 17.6484 26.4805 18.5801C26.9383 19.0366 27.3013 19.5791 27.5487 20.1764C27.7961 20.7737 27.9229 21.414 27.9219 22.0605C27.9219 23.3745 27.4077 24.6094 26.4805 25.541Z" fill="#0D47A1"/>
</svg>
