<svg width="46" height="45" viewBox="0 0 46 45" fill="none" xmlns="http://www.w3.org/2000/svg">
<path d="M21.8333 25.5714V28.4286C19.1812 28.4286 16.6376 29.3316 14.7623 30.9391C12.8869 32.5465 11.8333 34.7267 11.8333 37H8.5C8.5 33.969 9.90476 31.0621 12.4052 28.9188C14.9057 26.7755 18.2971 25.5714 21.8333 25.5714ZM21.8333 24.1429C16.3083 24.1429 11.8333 20.3071 11.8333 15.5714C11.8333 10.8357 16.3083 7 21.8333 7C27.3583 7 31.8333 10.8357 31.8333 15.5714C31.8333 20.3071 27.3583 24.1429 21.8333 24.1429ZM21.8333 21.2857C25.5167 21.2857 28.5 18.7286 28.5 15.5714C28.5 12.4143 25.5167 9.85714 21.8333 9.85714C18.15 9.85714 15.1667 12.4143 15.1667 15.5714C15.1667 18.7286 18.15 21.2857 21.8333 21.2857ZM36.8333 29.8571H38.5V37H25.1667V29.8571H26.8333V28.4286C26.8333 27.2919 27.3601 26.2018 28.2978 25.3981C29.2355 24.5944 30.5072 24.1429 31.8333 24.1429C33.1594 24.1429 34.4312 24.5944 35.3689 25.3981C36.3065 26.2018 36.8333 27.2919 36.8333 28.4286V29.8571ZM33.5 29.8571V28.4286C33.5 28.0497 33.3244 27.6863 33.0118 27.4184C32.6993 27.1505 32.2754 27 31.8333 27C31.3913 27 30.9674 27.1505 30.6548 27.4184C30.3423 27.6863 30.1667 28.0497 30.1667 28.4286V29.8571H33.5Z" fill="#0D47A1"/>
</svg>
