<svg width="38" height="38" viewBox="0 0 38 38" fill="none" xmlns="http://www.w3.org/2000/svg">
<path d="M28.5 4.75C29.7116 4.74993 30.8774 5.21285 31.7589 6.04403C32.6404 6.87522 33.171 8.01184 33.2421 9.22133L33.25 9.5V28.5C33.2501 29.7116 32.7872 30.8774 31.956 31.7589C31.1248 32.6404 29.9882 33.171 28.7787 33.2421L28.5 33.25H9.5C8.28842 33.2501 7.1226 32.7872 6.24109 31.956C5.35957 31.1248 4.829 29.9882 4.75792 28.7787L4.75 28.5V9.5C4.74993 8.28842 5.21285 7.1226 6.04403 6.24109C6.87522 5.35957 8.01184 4.829 9.22133 4.75792L9.5 4.75H28.5ZM23.75 7.91667H9.5C9.11219 7.91672 8.73788 8.0591 8.44808 8.3168C8.15827 8.5745 7.97312 8.9296 7.92775 9.31475L7.91667 9.5V28.5C7.91672 28.8878 8.0591 29.2621 8.3168 29.5519C8.5745 29.8417 8.9296 30.0269 9.31475 30.0723L9.5 30.0833H23.75V7.91667ZM15.2206 14.5825L15.3694 14.7139L18.5361 17.8806C18.8087 18.1532 18.9725 18.516 18.9967 18.9008C19.0209 19.2855 18.9038 19.6659 18.6675 19.9706L18.5361 20.1194L15.3694 23.2861C15.0845 23.5701 14.7021 23.7349 14.3001 23.7472C13.898 23.7595 13.5063 23.6182 13.2046 23.3522C12.9028 23.0861 12.7137 22.7152 12.6755 22.3148C12.6374 21.9143 12.7531 21.5143 12.9992 21.1961L13.1306 21.0473L15.1763 19L13.1306 16.9528C12.858 16.6801 12.6942 16.3174 12.67 15.9326C12.6458 15.5478 12.7629 15.1674 12.9992 14.8628L13.1306 14.7139C13.4032 14.4413 13.766 14.2775 14.1508 14.2533C14.5355 14.2291 14.9159 14.3462 15.2206 14.5825Z" fill="black"/>
</svg>
