<svg width="38" height="38" viewBox="0 0 38 38" fill="none" xmlns="http://www.w3.org/2000/svg">
<path d="M28.5 4.75C29.7116 4.74993 30.8774 5.21285 31.7589 6.04403C32.6404 6.87522 33.171 8.01184 33.2421 9.22133L33.25 9.5V28.5C33.2501 29.7116 32.7872 30.8774 31.956 31.7589C31.1248 32.6404 29.9882 33.171 28.7787 33.2421L28.5 33.25H9.5C8.28842 33.2501 7.1226 32.7872 6.24109 31.956C5.35957 31.1248 4.829 29.9882 4.75792 28.7787L4.75 28.5V9.5C4.74993 8.28842 5.21285 7.1226 6.04403 6.24109C6.87522 5.35957 8.01184 4.829 9.22133 4.75792L9.5 4.75H28.5ZM28.5 7.91667H14.25V30.0833H28.5C28.8878 30.0833 29.2621 29.9409 29.5519 29.6832C29.8417 29.4255 30.0269 29.0704 30.0723 28.6853L30.0833 28.5V9.5C30.0833 9.11219 29.9409 8.73788 29.6832 8.44808C29.4255 8.15827 29.0704 7.97312 28.6853 7.92775L28.5 7.91667ZM24.8694 14.7139C25.142 14.9866 25.3058 15.3493 25.33 15.7341C25.3542 16.1189 25.2371 16.4993 25.0008 16.8039L24.8694 16.9528L22.8237 19L24.8694 21.0473C25.142 21.3199 25.3058 21.6826 25.33 22.0674C25.3542 22.4522 25.2371 22.8326 25.0008 23.1373L24.8694 23.2861C24.5968 23.5587 24.234 23.7225 23.8492 23.7467C23.4645 23.7709 23.0841 23.6538 22.7794 23.4175L22.6306 23.2861L19.4639 20.1194C19.1913 19.8468 19.0275 19.484 19.0033 19.0992C18.9791 18.7145 19.0962 18.3341 19.3325 18.0294L19.4639 17.8806L22.6306 14.7139C22.9275 14.4171 23.3302 14.2503 23.75 14.2503C24.1698 14.2503 24.5725 14.4171 24.8694 14.7139Z" fill="black"/>
</svg>
