<svg width="46" height="45" viewBox="0 0 46 45" fill="none" xmlns="http://www.w3.org/2000/svg">
<path d="M42.0944 22.1924L25.114 5.22069L23.9758 4.08251C23.7164 3.82489 23.3657 3.6803 23.0002 3.6803C22.6346 3.6803 22.2839 3.82489 22.0246 4.08251L3.90594 22.1924C3.64021 22.4571 3.4302 22.7723 3.2883 23.1195C3.14641 23.4667 3.0755 23.8388 3.07977 24.2139C3.09735 25.7607 4.38495 26.9956 5.93182 26.9956H7.7995V41.3086H38.2009V26.9956H40.1081C40.8596 26.9956 41.5671 26.7012 42.0988 26.1694C42.3606 25.9084 42.5681 25.5981 42.7092 25.2564C42.8502 24.9147 42.9221 24.5484 42.9206 24.1787C42.9206 23.4316 42.6262 22.7241 42.0944 22.1924ZM25.4611 38.1445H20.5392V29.1797H25.4611V38.1445ZM35.0368 23.8315V38.1445H28.2736V28.125C28.2736 27.1538 27.487 26.3672 26.5158 26.3672H19.4846C18.5134 26.3672 17.7267 27.1538 17.7267 28.125V38.1445H10.9636V23.8315H6.74481L23.0046 7.58495L24.0197 8.60009L39.2599 23.8315H35.0368Z" fill="#0D47A1"/>
</svg>
